<svg xmlns="http://www.w3.org/2000/svg" viewBox="0 0 147.4 147.4"><g><g><path d="M109.54 50.92h-15A35.94 35.94 0 0 0 58.62 15V0a51 51 0 0 1 50.92 50.92z" fill="#00afec"/><path d="M72.31 42.88a35.93 35.93 0 0 0-50.76 0L10.92 32.25a51 51 0 0 1 72 0L72.31 42.88z" fill="#007bc7"/><path d="M15 88.79H0a51 51 0 0 1 50.92-50.92v15A35.94 35.94 0 0 0 15 88.79z" fill="#a64a97"/><path d="M32.25 136.48a51 51 0 0 1 0-72l10.62 10.61a35.94 35.94 0 0 0 0 50.76l-10.62 10.63z" fill="#e6287b"/><path d="M88.78 147.4a51 51 0 0 1-50.91-50.92h15a35.94 35.94 0 0 0 35.89 35.89v15z" fill="#eb6133"/><path d="M100.48 130a50.76 50.76 0 0 1-36-14.89l10.62-10.59a35.94 35.94 0 0 0 50.76 0l10.62 10.62a50.77 50.77 0 0 1-36 14.89z" fill="#f39800"/><path d="M96.48 109.54v-15a35.94 35.94 0 0 0 35.89-35.9h15a51 51 0 0 1-50.92 50.92z" fill="#8ec43e"/><path d="M115.15 82.93l-10.62-10.62a35.94 35.94 0 0 0 0-50.76l10.63-10.62a51 51 0 0 1 0 72z" fill="#00ada9"/><path d="M12.87 55c14.68-3.5 27.67-8.87 38.05-15.59v-1.54A50.8 50.8 0 0 0 12.87 55z" fill="#fff" opacity=".2"/><path d="M10.92 32.25l10.62 10.63a35.92 35.92 0 0 1 36.6-8.7A61.22 61.22 0 0 0 69.3 22.53a51 51 0 0 0-58.38 9.72zM76.92 3.42A50.62 50.62 0 0 0 58.62 0v15a35.68 35.68 0 0 1 13.71 2.73 37.85 37.85 0 0 0 4.59-14.31z" fill="#fff" opacity=".2"/></g></g></svg>