<?xml version="1.0" encoding="utf-8"?>
<!-- Generator: Adobe Illustrator 16.0.0, SVG Export Plug-In . SVG Version: 6.00 Build 0)  -->
<!DOCTYPE svg PUBLIC "-//W3C//DTD SVG 1.1//EN" "http://www.w3.org/Graphics/SVG/1.1/DTD/svg11.dtd">
<svg version="1.1" id="Layer_1" xmlns="http://www.w3.org/2000/svg" xmlns:xlink="http://www.w3.org/1999/xlink" x="0px" y="0px"
	 width="100px" height="100px" viewBox="0 0 100 100" enable-background="new 0 0 100 100" xml:space="preserve">
<g>
	<path fill="#010101" d="M76.568,42.512c0.57-1.314,0.868-2.735,0.868-4.176c0-3.724-2.01-7.203-5.249-9.083
		c-2.561-1.48-5.708-1.803-8.492-0.897c-3.438-4.679-8.961-7.522-14.8-7.522c-3.214,0-6.39,0.857-9.186,2.478
		c-1.875,1.086-3.521,2.477-4.908,4.14c-2.075,0.127-4.107,0.74-5.923,1.792c-4.149,2.404-6.727,6.866-6.727,11.645
		c0,4.778,2.578,9.238,6.727,11.64c0.788,0.457,1.639,0.833,2.54,1.125c0.921,2.873,2.549,5.484,4.753,7.609
		c0.795,0.766,2.062,0.744,2.828-0.051c0.767-0.796,0.744-2.062-0.052-2.828c-1.952-1.882-3.326-4.247-3.974-6.841
		c-0.182-0.727-0.755-1.292-1.485-1.462c-0.952-0.223-1.828-0.564-2.606-1.014c-2.918-1.689-4.731-4.823-4.731-8.178
		c0-3.357,1.813-6.493,4.731-8.184c1.442-0.835,3.077-1.277,4.635-1.28c0.049,0.004,0.181,0.013,0.229,0.013
		c0.679,0.036,1.251-0.288,1.636-0.803c1.181-1.581,2.638-2.88,4.332-3.862c2.188-1.268,4.67-1.938,7.18-1.938
		c5.098,0,9.708,2.628,12.333,7.03c0.546,0.917,1.715,1.243,2.66,0.74c1.945-1.038,4.366-1.003,6.296,0.111
		c2.007,1.164,3.253,3.318,3.253,5.621c0,1.171-0.318,2.321-0.92,3.327c-0.427,0.715-0.367,1.62,0.151,2.271
		c1.344,1.69,2.054,3.717,2.054,5.862c0,3.357-1.813,6.493-4.733,8.183c-1.442,0.836-3.076,1.277-4.725,1.277
		c-0.396,0-0.803-0.029-1.24-0.09c-1.09-0.15-2.104,0.613-2.255,1.708s0.614,2.104,1.708,2.255c0.621,0.085,1.206,0.127,1.787,0.127
		c2.352,0,4.68-0.628,6.729-1.815c4.15-2.402,6.729-6.864,6.729-11.645C78.722,47.178,77.98,44.685,76.568,42.512z"/>
	<path fill="#010101" d="M51.77,57.843c-0.093-0.093-0.196-0.177-0.307-0.251c-0.047-0.03-0.097-0.052-0.146-0.078
		c-0.065-0.037-0.129-0.076-0.198-0.105c-0.064-0.025-0.13-0.041-0.196-0.061c-0.06-0.018-0.116-0.04-0.178-0.053
		c-0.126-0.024-0.255-0.038-0.384-0.038c-0.002,0-0.004-0.001-0.007-0.001l0,0c-0.132,0-0.263,0.014-0.392,0.039
		c-0.057,0.012-0.109,0.033-0.164,0.049c-0.07,0.021-0.142,0.037-0.21,0.065c-0.064,0.026-0.123,0.063-0.183,0.097
		c-0.054,0.029-0.109,0.053-0.161,0.087c-0.11,0.073-0.213,0.157-0.306,0.25l-7.458,7.458c-0.781,0.781-0.781,2.047,0,2.828
		c0.39,0.391,0.902,0.586,1.414,0.586s1.024-0.195,1.414-0.586l4.045-4.045V74.67c0,1.104,0.896,2,2,2s2-0.896,2-2V64.084
		l4.127,4.127c0.391,0.391,0.902,0.586,1.414,0.586s1.023-0.195,1.414-0.586c0.781-0.781,0.781-2.047,0-2.828L51.77,57.843z"/>
</g>
</svg>
