<?xml version="1.0" encoding="UTF-8"?>
<!DOCTYPE svg PUBLIC "-//W3C//DTD SVG 1.1//EN" "http://www.w3.org/Graphics/SVG/1.1/DTD/svg11.dtd">
<!-- Creator: CorelDRAW X7 -->
<svg xmlns="http://www.w3.org/2000/svg" xml:space="preserve" width="150px" height="150px" version="1.1" style="shape-rendering:geometricPrecision; text-rendering:geometricPrecision; image-rendering:optimizeQuality; fill-rule:evenodd; clip-rule:evenodd"
viewBox="0 0 3651 3651"
 xmlns:xlink="http://www.w3.org/1999/xlink">
 <defs>
  <style type="text/css">
   <![CDATA[
    .fil0 {fill:none}
    .fil1 {fill:rgb(242, 104, 86);fill-rule:nonzero}
   ]]>
  </style>
 </defs>
 <g id="Capa_x0020_1">
  <metadata id="CorelCorpID_0Corel-Layer"/>
  <g id="_660140600">
   <rect class="fil0" width="3651" height="3651"/>
   <path class="fil1" d="M41 3136c-23,0 -41,18 -41,41l0 82c0,22 18,41 41,41l2788 0c23,0 41,-19 41,-41l0 -82c0,-23 -18,-41 -41,-41l-500 0 741 -742c48,-48 48,-126 1,-174l-519 -518 38 -80 314 -242 197 96c119,57 261,8 318,-110l208 -431c57,-118 7,-260 -111,-317l-396 -191c-145,-71 -307,-92 -464,-63l-1181 219c-99,18 -185,83 -229,174l-517 1070c-47,99 -21,213 58,282l-566 567c-48,48 -49,126 -1,174l286 286 -465 0zm2435 -1278l450 450 -829 828 -1358 0 -373 -374 1507 -1507 128 128 -225 466c-85,177 -11,389 167,475l35 17c119,58 261,9 318,-109l180 -374zm-345 -575l1 -1 -172 -172c-48,-48 -126,-48 -174,0l-886 887c-33,-22 -45,-65 -28,-101l517 -1070c23,-46 65,-78 114,-87l1181 -219c124,-24 255,-6 367,49l396 191c39,19 56,67 37,106l-208 431c-19,39 -67,56 -106,37l-220 -106c-40,-20 -88,-14 -124,12l-347 268c-11,7 -18,17 -24,28l-302 627c-19,39 -67,55 -106,36l-36 -17c-98,-47 -140,-166 -92,-264l239 -495c22,-46 12,-101 -25,-137l-2 -3z"/>
  </g>
 </g>
</svg>
